<?xml version="1.0" standalone="no"?>
<!DOCTYPE svg PUBLIC "-//W3C//DTD SVG 1.1//EN" "http://www.w3.org/Graphics/SVG/1.1/DTD/svg11.dtd" >
<svg xmlns="http://www.w3.org/2000/svg" xmlns:xlink="http://www.w3.org/1999/xlink" version="1.1">
<metadata></metadata>
<defs>
<font id="boisustroke" horiz-adv-x="1105" >
<font-face units-per-em="2048" ascent="1536" descent="-512" />
<missing-glyph horiz-adv-x="1228" />
<glyph unicode="&#xfb01;" horiz-adv-x="1280" d="M123 0v1004q0 178 125.5 304t304.5 126h604v-287h-604q-60 0 -101.5 -41.5t-41.5 -101.5v-287h317v-287h-317v-430h-287zM338 1077q0 -6 2 -6q1 0 4 6q14 54 74.5 98t134.5 44h532v143h-532q-19 0 -51 -4q-67 -57 -111.5 -133.5t-52.5 -147.5zM410 502h245v143h-245v-143 zM870 0v1024h287v-1024h-287z" />
<glyph unicode="&#xfb02;" horiz-adv-x="1280" d="M123 0v1004q0 178 125.5 304t304.5 126h604v-1434h-287v1147h-317q-60 0 -101.5 -41.5t-41.5 -101.5v-287h317v-287h-317v-430h-287zM338 1077q0 -6 2 -6q1 0 4 6q14 54 74.5 98t134.5 44h317v143h-317q-19 0 -51 -4q-67 -57 -111.5 -133.5t-52.5 -147.5zM410 502h245 v143h-245v-143z" />
<glyph horiz-adv-x="0" />
<glyph horiz-adv-x="682" />
<glyph unicode=" "  horiz-adv-x="1228" />
<glyph unicode="&#x09;" horiz-adv-x="1228" />
<glyph unicode="&#xa0;" horiz-adv-x="1228" />
<glyph unicode="!" horiz-adv-x="768" d="M205 1454h358l-71 -1024h-216zM250 0v268h268v-268h-268z" />
<glyph unicode="$" horiz-adv-x="1228" d="M184 410v71h287v-71q0 -60 41.5 -102t101.5 -42t102 42t42 102q0 38 -24.5 69.5t-65 53.5t-92 47t-105.5 48.5t-105.5 60t-92 79.5t-65 109t-24.5 147q0 151 94 268t238 150v168h197v-168q144 -32 237.5 -149.5t93.5 -268.5v-72h-286v72q0 60 -42 101.5t-102 41.5 t-101.5 -41.5t-41.5 -101.5q0 -38 24.5 -69.5t65 -53.5t92 -47t105 -48.5t105 -60t92 -79.5t65 -109t24.5 -147q0 -151 -93.5 -268.5t-237.5 -149.5v-168h-197v168q-144 33 -238 150t-94 268zM256 410q0 -150 104 -254q81 -78 183 -99q115 24 196 109t90 182h-2 q-11 -58 -73 -105.5t-140 -47.5q-89 0 -152 63t-63 152h-143zM399 1085h2q11 59 73 106.5t140 47.5q89 0 152 -63t63 -152h144q0 149 -105 254q-80 77 -182 98q-115 -24 -196.5 -109t-90.5 -182z" />
<glyph unicode="%" horiz-adv-x="1228" />
<glyph unicode="&#x26;" horiz-adv-x="1488" d="M205 360q0 152 110 271l99 98l-74 74q-111 117 -111 268q0 162 113 272.5t268 110.5q158 0 269.5 -111.5t111.5 -271.5q0 -152 -110 -268l-74 -74l147 -147l146 147l196 -197l-147 -147l197 -197l-197 -194l-195 194l-98 -96q-52 -52 -124 -82t-146 -30q-157 0 -269 110 t-112 270zM274 360q0 -89 48 -165q76 -48 165 -48q129 0 218 89q-47 -48 -120 -47.5t-122 49.5q-51 51 -51 122.5t51 122.5l368 369q91 91 91 219q0 130 -91 221q-66 66 -151 84q-86 -18 -152 -84q-92 -92 -92 -221q0 72 51 123t123 51t123 -51t51 -122t-51 -122l-368 -368 q-91 -91 -91 -222zM481 360.5q0 -42.5 31 -73.5q34 -31 73.5 -31t73.5 31l99 98l-148 147l-98 -98q-31 -31 -31 -73.5zM506 1071q0 -41 31 -72l73 -73l74 73q31 29 31 73t-31 73q-31 31 -74 31q-45 0 -74.5 -32t-29.5 -73zM1004 532l96 -98l98 98l-98 99z" />
<glyph unicode="'" horiz-adv-x="454" d="M61 1247l93 373h280l-186 -373h-187z" />
<glyph unicode="(" horiz-adv-x="692" d="M102 717q0 291 78 562t201 404l209 -192q-88 -99 -144.5 -315.5t-56.5 -458.5t56.5 -458.5t144.5 -315.5l-209 -193q-123 133 -201 404.5t-78 562.5z" />
<glyph unicode=")" horiz-adv-x="692" d="M102 -57q88 99 144.5 315.5t56.5 458.5t-56.5 458.5t-144.5 315.5l209 192q123 -133 201 -404t78 -562t-78 -562.5t-201 -404.5z" />
<glyph unicode="+" horiz-adv-x="1157" d="M41 561v268h393v406h289v-404h393v-268h-391v-403h-289v401h-395zM504 829l151 2v334h-151v-336zM506 229h149v334l-149 -2v-332z" />
<glyph unicode="," horiz-adv-x="618" d="M123 -207l92 373h281l-187 -373h-186z" />
<glyph unicode="-" horiz-adv-x="1198" d="M205 465v287h788v-287h-788zM276 537h248l107 143h-355v-143z" />
<glyph unicode="." horiz-adv-x="677" d="M205 0v268h268v-268h-268z" />
<glyph unicode="0" horiz-adv-x="1341" d="M205 446v543q0 192 137 328.5t330 136.5q69 0 143 -22q142 -46 232 -168t90 -275v-543q0 -193 -136.5 -329.5t-328.5 -136.5q-61 0 -123 16q-151 40 -247.5 164.5t-96.5 285.5zM492 446q0 -75 52.5 -127.5t127.5 -52.5q72 0 125 51t53 123v549q0 73 -52 125.5t-126 52.5 q-75 0 -127.5 -52t-52.5 -126v-543zM653 1239h19q103 0 176.5 -73.5t73.5 -176.5v-557q0 -209 -144 -366q23 7 45 16q69 30 127 84q54 58 84 127q31 73 31 153v543q0 130 -78 234q-31 44 -86 86q-49 33 -86 47q-39 -14 -88 -47q-40 -28 -74 -70z" />
<glyph unicode="1" horiz-adv-x="1126" d="M205 860v287q119 0 203 84.5t84 202.5h286v-1147h144v-287h-574v287h144v649q-136 -76 -287 -76zM276 936q57 8 123 35q49 21 93 51v197q-81 -111 -216 -136v-147z" />
<glyph unicode="2" horiz-adv-x="1269" d="M205 0v287q71 53 123 94t115.5 95.5t108.5 101t90.5 103.5t73 109.5t45 113t17.5 120.5t-41.5 101.5t-101.5 41.5t-101.5 -41.5t-41.5 -101.5v-72h-287v72q0 178 125.5 304t304.5 126t304.5 -126t125.5 -304q0 -119 -64.5 -263t-182 -274.5t-255.5 -199.5h502v-287h-860z M537 1214q45 25 98 25q89 0 152 -63t63 -152q0 -51 -8 -90q88 49 149 135q-17 124 -106.5 211.5t-204.5 99.5q-95 -67 -143 -166z" />
<glyph unicode="3" horiz-adv-x="1218" d="M123 469h268q0 -85 58 -143t143 -58q83 0 141 58t58 143q0 83 -58 141t-141 58h-320l332 497h-420v269h922l-350 -525q84 -24 154.5 -94t110.5 -162.5t40 -183.5q0 -131 -64.5 -239.5t-172 -169t-232.5 -60.5q-126 0 -234 61.5t-171.5 170t-63.5 237.5zM252 1231h479 l-332 -494h160l420 629h-727v-135z" />
<glyph unicode="4" horiz-adv-x="1187" d="M158 215v287l395 932h287l-381 -932h166v205h286v-205h72v-287h-72v-215h-286v215h-467zM696 72h144v143h-144v-143zM696 502h144v133h-144v-133z" />
<glyph unicode="5" horiz-adv-x="1269" d="M205 410v71h287v-71q0 -60 41.5 -102t101.5 -42t101.5 42t41.5 102v163q0 60 -41.5 102t-101.5 42h-430v717h860v-287h-573v-143h143q93 0 176.5 -38t144.5 -106q109 -122 109 -287v-163q0 -178 -125.5 -304t-304.5 -126t-304.5 126t-125.5 304zM276 410q0 -71 29 -140 q27 -65 76 -114q48 -48 115 -76q69 -29 139 -29t139 29q67 28 115 76q49 49 76 114q28 67 28 140v114q-63 97 -168 148q25 -45 25 -99v-163q0 -89 -63 -152t-152 -63t-152 63t-63 152h-144z" />
<glyph unicode="6" horiz-adv-x="1269" d="M205 410v614q0 178 125.5 304t304.5 126t304.5 -126t125.5 -304v-72h-287v72q0 60 -41.5 101.5t-101.5 41.5t-101.5 -41.5t-41.5 -101.5v-209q70 25 143 25q93 0 176.5 -38t144.5 -106q109 -122 109 -286q0 -178 -125.5 -304t-304.5 -126t-304.5 126t-125.5 304zM276 647 q57 85 144 135v246q0 198 143 348q-41 -11 -67 -22q-67 -28 -115 -76t-76 -115q-29 -69 -29 -139v-377zM492 410q0 -60 41.5 -102t101.5 -42t101.5 42t41.5 102t-41.5 101.5t-101.5 41.5t-101.5 -41.5t-41.5 -101.5z" />
<glyph unicode="7" horiz-adv-x="1167" d="M180 1147v287h860v-287q-154 -76 -292 -369h108v-215h-197q-56 -156 -88 -309t-32 -254h-287q0 99 31 250t88 313h-160v215h248q99 213 223 369h-502zM328 72h143q14 196 111 491h-133q-35 -79 -73.5 -235t-47.5 -256zM539 778h129q112 250 247 369h-141 q-168 -209 -235 -369z" />
<glyph unicode="8" horiz-adv-x="1269" d="M205 422q0 171 108 295q-108 124 -108 295q0 183 126 312.5t304 129.5t304 -129.5t126 -312.5q0 -170 -109 -295q109 -125 109 -295q0 -183 -126 -312.5t-304 -129.5t-304 129.5t-126 312.5zM276 422q0 -70 29 -143q30 -71 76 -117q47 -49 115 -78q29 -15 67 -25 q119 26 199.5 121.5t87.5 220.5h-2q-15 -87 -72.5 -143.5t-140.5 -56.5q-89 0 -152 64.5t-63 156.5q0 62 30 113t82 81q-92 38 -145 74l-18 -22q-93 -107 -93 -246zM420 1032h2q8 85 68.5 143t144.5 58q89 0 152 -64.5t63 -156.5q0 -62 -30.5 -113.5t-82.5 -81.5 q95 -39 146 -74l18 23q92 106 92 246q0 73 -28 143q-30 71 -76 117q-47 49 -115 78q-25 13 -67 24q-119 -26 -199.5 -121.5t-87.5 -220.5zM492 422q0 -62 41.5 -105t101.5 -43t101.5 43t41.5 105t-41.5 104.5t-101.5 42.5t-101.5 -42.5t-41.5 -104.5zM492 1012 q0 -62 41.5 -105t101.5 -43t101.5 43t41.5 105t-41.5 104.5t-101.5 42.5t-101.5 -42.5t-41.5 -104.5z" />
<glyph unicode="9" horiz-adv-x="1269" d="M205 410v71h287v-71q0 -60 41.5 -102t101.5 -42t101.5 42t41.5 102v208q-68 -24 -143 -24q-94 0 -177.5 38t-144.5 105q-108 121 -108 287q0 178 125.5 304t304.5 126t304.5 -126t125.5 -304v-614q0 -178 -125.5 -304t-304.5 -126t-304.5 126t-125.5 304zM492 1024 q0 -60 41.5 -101.5t101.5 -41.5t101.5 41.5t41.5 101.5t-41.5 101.5t-101.5 41.5t-101.5 -41.5t-41.5 -101.5zM707 57q35 9 67 23q67 28 115 76q49 49 76 114q28 67 28 140v376q-58 -86 -143 -135v-245q-1 -99 -38.5 -189t-104.5 -160z" />
<glyph unicode=":" horiz-adv-x="684" d="M205 0v268h268v-268h-268zM211 778v269h268v-269h-268z" />
<glyph unicode=";" horiz-adv-x="679" d="M123 -207l92 373h281l-187 -373h-186zM205 778v269h268v-269h-268z" />
<glyph unicode="&#x3c;" horiz-adv-x="1228" />
<glyph unicode="=" horiz-adv-x="1228" d="M113 389v213l942 2v-213zM113 735v269l942 2v-269zM182 805h805l-2 129h-803v-129z" />
<glyph unicode="&#x3e;" horiz-adv-x="1228" />
<glyph unicode="?" horiz-adv-x="1044" d="M82 1044q0 179 126 305t304 126t304 -126t126 -305q0 -79 -40 -156t-97 -136t-113.5 -113t-96.5 -108t-40 -101h-229q0 63 34 136.5t82 138.5t96.5 126t82.5 117.5t34 95.5q0 60 -41.5 102t-101.5 42t-101.5 -42t-41.5 -102h-287zM305 0v268h270v-268h-270z" />
<glyph unicode="@" horiz-adv-x="1781" d="M123 319v383q0 145 56.5 276t151.5 225t225 149t271 55h320q141 0 259.5 -70.5t185.5 -188t67 -253.5v-576q0 -133 -93 -226t-227 -93q-124 0 -213 80q-104 -80 -235 -80q-162 0 -271 110t-112 265v264q0 160 111.5 272.5t271.5 112.5q44 0 129 -23v23h256v-705 q0 -26 18.5 -44.5t44.5 -18.5t45 18.5t19 44.5v576q0 106 -75 181t-181 75h-320q-186 0 -317 -131t-131 -318v-383q0 -186 131 -317t317 -131h449v-256h-449q-145 0 -276 57t-224.5 152t-148.5 224.5t-55 270.5zM315 719q0 135 69.5 249.5t187 180t255.5 65.5h320 q131 0 225 -93t94 -226v-578q0 -87 -52.5 -155.5t-135.5 -91.5q35 -7 61 -7q106 0 181 75t75 181v576q0 173 -116.5 302t-288.5 144h-236q-169 0 -316 -82t-235 -226t-88 -314zM698 639q0 78 57.5 135t135.5 57t135 -57t57 -135v-256q0 -93 -38.5 -175t-106.5 -140 q111 9 191.5 102t80.5 213v575h-127v-63q-57 35 -97 49t-95 14q-15 0 -47 -4q-68 -59 -107 -140.5t-39 -174.5zM764 383q0 -54 36.5 -90.5t90.5 -36.5t91.5 36.5t37.5 90.5v256q0 54 -37.5 91.5t-91.5 37.5t-90.5 -37.5t-36.5 -91.5v-256z" />
<glyph unicode="A" horiz-adv-x="1269" d="M61 0l431 1434h286l430 -1434h-286l-107 358h-358l-109 -358h-287zM543 645h186l-94 311zM672 1081l303 -1009h137l-371 1237z" />
<glyph unicode="B" horiz-adv-x="1208" d="M205 0v1434h430q177 0 303.5 -126.5t126.5 -303.5q0 -76 -29 -153t-80 -134q51 -57 80 -134t29 -153q0 -177 -126.5 -303.5t-303.5 -126.5h-430zM492 72h143q150 0 254 104t104 254q0 84 -38 162t-105 125q67 47 105 124t38 163q0 150 -104 254t-254 104h-143v-143h143 q89 0 152 -63t63 -152t-63 -152.5t-152 -63.5h-143v-143h143q89 0 152 -63t63 -152t-63 -152t-152 -63h-143v-143zM492 287h143q60 0 101.5 41.5t41.5 101.5t-41.5 101.5t-101.5 41.5h-143v-286zM492 860h143q60 0 101.5 42t41.5 102t-41.5 101.5t-101.5 41.5h-143v-287z " />
<glyph unicode="C" horiz-adv-x="1208" d="M184 410v614q0 178 126 304t304 126t304 -126t126 -304h-286q0 60 -42 101.5t-102 41.5t-101.5 -41.5t-41.5 -101.5v-614q0 -60 41.5 -102t101.5 -42t102 42t42 102h286q0 -178 -126 -304t-304 -126t-304 126t-126 304zM520 209q49 -93 139 -156q122 16 209 103 q78 82 99 182h-150q-22 -64 -77.5 -103.5t-125.5 -39.5q-48 0 -88 18q-9 6 -6 -4zM522 1227q-3 -9 6 -6q40 18 86 18q70 0 125.5 -39.5t77.5 -103.5h150q-21 100 -99 182q-86 86 -209 102q-89 -64 -137 -153z" />
<glyph unicode="D" horiz-adv-x="1228" d="M205 0v1434h430q179 0 304.5 -126t125.5 -304v-574q0 -178 -125.5 -304t-304.5 -126h-430zM281 76h133v1071h-133v-1071zM492 287h143q59 0 101 42.5t42 100.5v574q0 60 -42 101.5t-101 41.5h-143v-860z" />
<glyph unicode="E" horiz-adv-x="1198" d="M205 0v1434h788v-287h-501v-287h501v-287h-501v-286h501v-287h-788zM492 645h430v143h-430v-143z" />
<glyph unicode="F" horiz-adv-x="1198" d="M205 0v1434h788v-287h-501v-287h501v-287h-501v-573h-287zM492 645h430v143h-430v-143z" />
<glyph unicode="G" horiz-adv-x="1228" d="M184 410v614q0 178 126 304t304 126t304 -126t126 -304h-286q0 60 -42 101.5t-102 41.5t-101.5 -41.5t-41.5 -101.5v-614q0 -60 41.5 -102t101.5 -42t102 42t42 102v71h-144v215h430v-286q0 -178 -126 -304t-304 -126t-304 126t-126 304zM520 209q49 -93 139 -156 q122 16 209 103q105 105 105 254v215h-287v-72h143v-143q0 -89 -63 -152t-152 -63q-48 0 -88 18q-9 6 -6 -4zM522 1227q-3 -9 6 -6q40 18 86 18q70 0 125.5 -39.5t77.5 -103.5h150q-21 100 -99 182q-86 86 -209 102q-89 -64 -137 -153z" />
<glyph unicode="H" horiz-adv-x="1413" d="M205 0v1434h287v-574h430v574h286v-1434h-286v573h-430v-573h-287zM993 72h144v1290h-144v-1290z" />
<glyph unicode="I" horiz-adv-x="696" d="M205 0v1434h287v-1434h-287z" />
<glyph unicode="J" horiz-adv-x="1167" d="M102 410v143h287v-143q0 -60 41.5 -102t101.5 -42t102 42t42 102v1024h287v-1024q0 -178 -126 -304t-305 -126q-178 0 -304 126t-126 304zM174 410q0 -149 105 -254q88 -88 208 -103q90 64 138 154q1 4 -0.5 6t-6.5 0q-40 -18 -86 -18q-89 0 -152 63t-63 152v71h-143v-71 z" />
<glyph unicode="K" horiz-adv-x="1259" d="M205 0v1434h287v-465l286 465h359l-461 -717l461 -717h-359l-286 467v-467h-287zM545 514l274 -442h187l-373 579z" />
<glyph unicode="L" horiz-adv-x="1187" d="M205 0v1434h287v-1147h573v-287h-860zM492 72h501v143h-501v-143z" />
<glyph unicode="M" horiz-adv-x="1556" d="M205 0v1434h287l286 -621l287 621h287v-1434h-287v813l-143 -311h-287l-143 311v-813h-287zM317 1362l357 -774l65 139l-247 535l-46 100h-129zM1137 72h143v1206l-143 -309v-897z" />
<glyph unicode="N" horiz-adv-x="1413" d="M205 0v1434h287l430 -861v861h286v-1434h-286l-430 860v-860h-287zM492 1020l475 -948h125l-170 342l-430 860v-254z" />
<glyph unicode="O" horiz-adv-x="1228" d="M184 410v614q0 178 126 304t304 126t304 -126t126 -304v-614q0 -178 -126 -304t-304 -126t-304 126t-126 304zM399 1098q0 -6 2 -6t5 6q14 54 74 97.5t134 43.5q89 0 152 -63t63 -152v-621q0 -99 -41 -187t-112 -153q-7 -7 -1 -7l3 1q125 22 210 121t85 232v614 q0 150 -107 254t-252 104q-19 0 -51 -4q-67 -57 -111.5 -133t-52.5 -147zM471 410q0 -60 41.5 -102t101.5 -42t102 42t42 102v614q0 60 -42 101.5t-102 41.5t-101.5 -41.5t-41.5 -101.5v-614z" />
<glyph unicode="P" horiz-adv-x="1208" d="M205 0v1434h395q125 0 232 -63t170 -170t63 -232q0 -126 -62.5 -233.5t-169.5 -170.5t-233 -63h-108v-502h-287zM492 573h108q163 0 278 115.5t115 278.5q0 164 -114.5 279.5t-278.5 115.5h-108v-143h108q103 0 176.5 -74t73.5 -178q0 -103 -73.5 -176.5t-176.5 -73.5 h-108v-144zM492 788h108q73 0 125.5 52.5t52.5 126.5q0 75 -52 127.5t-126 52.5h-108v-359z" />
<glyph unicode="Q" horiz-adv-x="1228" d="M164 430v594q0 178 126 304t304 126t304 -126t126 -304v-594q0 -98 -42 -185t-114 -147l156 -313h-287l-108 217q-12 -2 -35 -2q-178 0 -304 126t-126 304zM451 430q0 -60 41.5 -101.5t101.5 -41.5t101.5 41.5t41.5 101.5v594q0 60 -41.5 101.5t-101.5 41.5t-101.5 -41.5 t-41.5 -101.5v-594zM639 143l63 -129l80 -157h125l-143 286h-125z" />
<glyph unicode="R" horiz-adv-x="1280" d="M205 0v1434h395q125 0 232 -63t170 -170t63 -232q0 -129 -65.5 -238t-174.5 -170l312 -561h-287l-279 502h-79v-502h-287zM492 573h108q163 0 278 115.5t115 278.5q0 164 -114.5 279.5t-278.5 115.5h-108v-143h108q103 0 176.5 -74t73.5 -178q0 -103 -73.5 -176.5 t-176.5 -73.5h-108v-144zM492 788h108q73 0 125.5 52.5t52.5 126.5q0 75 -52 127.5t-126 52.5h-108v-359z" />
<glyph unicode="S" horiz-adv-x="1228" d="M184 410v71h287v-71q0 -60 41.5 -102t101.5 -42t102 42t42 102q0 38 -24.5 69.5t-65 53.5t-92 47t-105.5 48.5t-105.5 60t-92 79.5t-65 109t-24.5 147q0 178 126 304t304 126t304 -126t126 -304v-72h-286v72q0 60 -42 101.5t-102 41.5t-101.5 -41.5t-41.5 -101.5 q0 -38 24.5 -69.5t65 -53.5t92 -47t105 -48.5t105 -60t92 -79.5t65 -109t24.5 -147q0 -178 -126 -304t-304 -126t-304 126t-126 304zM256 410q0 -150 104 -254q81 -78 183 -99q115 24 196 109t90 182h-2q-11 -58 -73 -105.5t-140 -47.5q-89 0 -152 63t-63 152h-143z M399 1085h2q11 59 73 106.5t140 47.5q89 0 152 -63t63 -152h144q0 149 -105 254q-80 77 -182 98q-115 -24 -196.5 -109t-90.5 -182z" />
<glyph unicode="T" horiz-adv-x="1167" d="M82 1147v287h1003v-287h-358v-1147h-287v1147h-358zM512 72h143v1075h-143v-1075z" />
<glyph unicode="U" horiz-adv-x="1269" d="M205 430v1004h287v-1004q0 -60 41.5 -101.5t101.5 -41.5t101.5 41.5t41.5 101.5v1004h287v-1004q0 -178 -125.5 -304t-304.5 -126t-304.5 126t-125.5 304zM537 240q48 -99 143 -166q123 16 209 102q104 104 104 254v932h-143v-932q0 -89 -63 -152t-152 -63q-53 0 -98 25z " />
<glyph unicode="V" horiz-adv-x="1310" d="M82 1434h287l286 -957l287 957h287l-430 -1434h-287zM692 352l70 -227l371 1237h-138z" />
<glyph unicode="W" horiz-adv-x="1884" d="M82 1434h287l215 -861l215 861h286l215 -861l216 861h286l-358 -1434h-287l-215 860l-215 -860h-287zM621 426l69 -279l215 861l-69 278zM1337 426l70 -279l303 1215h-139z" />
<glyph unicode="X" horiz-adv-x="1228" d="M113 0l358 717l-358 717h286l215 -430l215 430h287l-358 -717l358 -717h-287l-215 430l-215 -430h-286zM229 72h125l219 438l-61 127zM655 924l62 -127l282 565h-125z" />
<glyph unicode="Y" horiz-adv-x="1146" d="M61 1434h287l215 -560l215 560h287l-358 -932v-502h-287v502zM166 1362l293 -760l65 172l-225 588h-133z" />
<glyph unicode="Z" horiz-adv-x="1179" d="M133 0l459 1147h-459v287h883l-459 -1147h459v-287h-883zM244 72h145l516 1290h-145z" />
<glyph unicode="[" horiz-adv-x="907" d="M184 -250v1933h641v-286h-362v-1360h362v-287h-641zM463 -35v-143h291v143h-291zM463 1468h291v144h-291v-144z" />
<glyph unicode="]" horiz-adv-x="907" d="M82 37h362v1360h-362v286h641v-1933h-641v287zM154 -35v-143h290v143h-290zM154 1468h290v144h-290v-144z" />
<glyph unicode="`" horiz-adv-x="675" d="M0 1399l45 209l631 -133l-45 -211zM61 1434h553l-530 112z" />
<glyph unicode="a" d="M123 410v204q0 178 125.5 304t304.5 126q75 0 143 -24v4h287v-1024h-287v4q-68 -24 -143 -24q-179 0 -304.5 126t-125.5 304zM338 688q0 -6 2 -6q1 0 4 6q14 54 74 97.5t135 43.5q89 0 152 -62t63 -153v-542h143v880h-143v-51q-89 72 -215 72q-19 0 -51 -4 q-67 -57 -111.5 -133.5t-52.5 -147.5zM410 410q0 -60 41.5 -102t101.5 -42t101.5 42t41.5 102v204q0 60 -41.5 102t-101.5 42t-101.5 -42t-41.5 -102v-204z" />
<glyph unicode="b" d="M123 0v1536h287v-516q68 24 143 24q179 0 304.5 -126t125.5 -304v-204q0 -178 -125.5 -304t-304.5 -126q-76 0 -143 24v-4h-287zM338 688q0 -6 2 -6q1 0 4 6q14 54 74 97.5t135 43.5q89 0 152 -63t63 -152v-211q0 -98 -41.5 -186.5t-112.5 -153.5q-7 -7 -1 -7l3 1 q110 18 191 99q104 104 104 254v204q0 150 -104 254q-105 105 -254 105q-19 0 -51 -4q-67 -57 -111.5 -133.5t-52.5 -147.5zM410 410q0 -60 41.5 -102t101.5 -42t101.5 42t41.5 102v204q0 60 -41.5 102t-101.5 42t-101.5 -42t-41.5 -102v-204z" />
<glyph unicode="c" d="M123 410v204q0 178 125.5 304t304.5 126t304.5 -126t125.5 -304h-287q0 60 -41.5 102t-101.5 42t-101.5 -42t-41.5 -102v-204q0 -60 41.5 -102t101.5 -42t101.5 42t41.5 102h287q0 -178 -125.5 -304t-304.5 -126t-304.5 126t-125.5 304zM459 209q49 -93 139 -156 q122 16 209 103q77 80 98 182h-149q-22 -64 -77.5 -103.5t-125.5 -39.5q-47 0 -88 18q-9 6 -6 -4zM461 817q-3 -9 6 -6q41 18 86 18q70 0 125.5 -39.5t77.5 -103.5h149q-21 102 -98 182q-87 87 -209 103q-88 -63 -137 -154z" />
<glyph unicode="d" d="M123 410v204q0 178 125.5 304t304.5 126q75 0 143 -24v516h287v-1536h-287v4q-68 -24 -143 -24q-179 0 -304.5 126t-125.5 304zM338 688q0 -6 2 -6q1 0 4 6q14 54 74 97.5t135 43.5q89 0 152 -62t63 -153v-542h143v1392h-143v-563q-89 72 -215 72q-19 0 -51 -4 q-67 -57 -111.5 -133.5t-52.5 -147.5zM410 410q0 -60 41.5 -102t101.5 -42t101.5 42t41.5 102v204q0 60 -41.5 102t-101.5 42t-101.5 -42t-41.5 -102v-204z" />
<glyph unicode="e" horiz-adv-x="1013" d="M123 365v297q0 158 112.5 270t272.5 112q158 0 270.5 -112t112.5 -270v-297h-512q0 -54 37.5 -91.5t91.5 -37.5q91 0 140 14t106 57l153 -207q-104 -72 -184 -96t-215 -24q-160 0 -272.5 112.5t-112.5 272.5zM315 662q0 72 51 131t142 59q71 0 130.5 -51t59.5 -139v-130 h-319v-104h448v234q0 55 -21.5 110.5t-60.5 102.5t-101 76.5t-136 29.5q-15 0 -47 -4q-68 -58 -107 -140t-39 -175zM379 596h256v66q0 52 -37 89t-90 37q-54 0 -91.5 -36.5t-37.5 -89.5v-66z" />
<glyph unicode="f" horiz-adv-x="870" d="M123 0v881q0 117 57.5 216t156.5 156.5t216 57.5h215v-287h-215q-60 0 -101.5 -41.5t-41.5 -101.5v-164h317v-287h-317v-430h-287zM338 954q0 -6 2 -6q1 0 4 6q14 54 74.5 98t134.5 44h143v143h-143q-19 0 -51 -4q-67 -57 -111.5 -133.5t-52.5 -147.5zM410 502h245v143 h-245v-143z" />
<glyph unicode="g" d="M123 -223l430 -2q60 0 101.5 41.5t41.5 101.5v86q-68 -24 -143 -24q-179 0 -304.5 126t-125.5 304v204q0 178 125.5 304t304.5 126q75 0 143 -24v4h287v-1106q0 -178 -125.5 -304t-304.5 -126h-430v289zM195 -295v-145l313 2q89 64 137 153q3 9 -6 6q-41 -18 -86 -18z M195 410q0 -150 104 -254q81 -81 190 -99q4 -1 5 1t-2 5q-71 65 -112.5 153.5t-41.5 186.5v211q0 89 63 152t152 63q75 0 135 -43.5t74 -97.5q3 -6 4 -6q2 0 2 6q-8 71 -52.5 147.5t-111.5 133.5q-32 4 -51 4q-149 0 -254 -105q-104 -104 -104 -254v-204zM410 410 q0 -60 41.5 -102t101.5 -42t101.5 42t41.5 102v204q0 60 -41.5 102t-101.5 42t-101.5 -42t-41.5 -102v-204z" />
<glyph unicode="h" d="M123 0v1434h287v-435q70 25 143 25q179 0 304.5 -126t125.5 -304v-594h-287v594q0 60 -41.5 101.5t-101.5 41.5t-101.5 -41.5t-41.5 -101.5v-594h-287zM455 784q45 25 98 25q89 0 152 -63t63 -152v-522h143v522q0 150 -104 254q-86 86 -209 102q-95 -67 -143 -166z" />
<glyph unicode="i" horiz-adv-x="532" d="M123 0v1024h287v-1024h-287zM123 1147v287h287v-287h-287zM195 1219h143v143h-143v-143z" />
<glyph unicode="j" horiz-adv-x="997" d="M123 -223l321 -2q60 0 102 41.5t42 101.5v1106h286v-1106q0 -178 -126 -304t-304 -126h-321v289zM195 -295v-145l204 2q90 65 138 153q1 4 -0.5 6t-6.5 0q-40 -18 -86 -18zM588 1147v287h286v-287h-286zM659 1219h144v143h-144v-143z" />
<glyph unicode="k" horiz-adv-x="1177" d="M123 0v1434h287v-668l225 258h385l-475 -510l475 -514h-322l-288 289v-289h-287zM410 662l92 -101l370 400h-208l-254 -291v-8z" />
<glyph unicode="l" horiz-adv-x="532" d="M123 0v1536h287v-1536h-287z" />
<glyph unicode="m" horiz-adv-x="1679" d="M123 0v1024h287v-25q70 25 143 25q165 0 287 -109q122 109 286 109q178 0 304 -126t126 -304v-594h-286v594q0 60 -42 101.5t-102 41.5t-101.5 -41.5t-41.5 -101.5v-594h-287v594q0 60 -41.5 101.5t-101.5 41.5t-101.5 -41.5t-41.5 -101.5v-594h-287zM455 784 q45 25 98 25q101 0 166 -78q22 69 72 131q-81 72 -193 88q-95 -67 -143 -166zM1028 784q45 25 98 25q89 0 152 -63t63 -152v-522h144v522q0 149 -105 254q-86 86 -209 102q-95 -67 -143 -166z" />
<glyph unicode="n" d="M123 0v1024h287v-25q70 25 143 25q179 0 304.5 -126t125.5 -304v-594h-287v594q0 60 -41.5 101.5t-101.5 41.5t-101.5 -41.5t-41.5 -101.5v-594h-287zM455 784q45 25 98 25q89 0 152 -63t63 -152v-522h143v522q0 150 -104 254q-86 86 -209 102q-95 -67 -143 -166z" />
<glyph unicode="o" d="M123 410v204q0 178 125.5 304t304.5 126t304.5 -126t125.5 -304v-204q0 -178 -125.5 -304t-304.5 -126t-304.5 126t-125.5 304zM338 688q0 -6 2 -6q1 0 4 6q14 54 74 97.5t135 43.5q89 0 152 -63t63 -152v-211q0 -98 -41.5 -186.5t-112.5 -153.5q-7 -7 -1 -7l3 1 q125 22 210 121t85 232v204q0 150 -106.5 254.5t-251.5 104.5q-19 0 -51 -4q-67 -57 -111.5 -133.5t-52.5 -147.5zM410 410q0 -60 41.5 -102t101.5 -42t101.5 42t41.5 102v204q0 60 -41.5 102t-101.5 42t-101.5 -42t-41.5 -102v-204z" />
<glyph unicode="p" d="M123 -512v1536h287v-4q68 24 143 24q179 0 304.5 -126t125.5 -304v-204q0 -178 -125.5 -304t-304.5 -126q-76 0 -143 24v-516h-287zM338 688q0 -6 2 -6q1 0 4 6q14 54 74 97.5t135 43.5q89 0 152 -63t63 -152v-211q0 -98 -41.5 -186.5t-112.5 -153.5q-7 -7 -1 -7l3 1 q110 18 191 99q104 104 104 254v204q0 150 -104 254q-105 105 -254 105q-19 0 -51 -4q-67 -57 -111.5 -133.5t-52.5 -147.5zM410 410q0 -60 41.5 -102t101.5 -42t101.5 42t41.5 102v204q0 60 -41.5 102t-101.5 42t-101.5 -42t-41.5 -102v-204z" />
<glyph unicode="q" d="M123 410v204q0 178 125.5 304t304.5 126q75 0 143 -24v4h287v-1536h-287v516q-68 -24 -143 -24q-179 0 -304.5 126t-125.5 304zM338 688q0 -6 2 -6q1 0 4 6q14 54 74 97.5t135 43.5q89 0 152 -62t63 -153v-1054h143v1392h-143v-51q-89 72 -215 72q-19 0 -51 -4 q-67 -57 -111.5 -133.5t-52.5 -147.5zM410 410q0 -60 41.5 -102t101.5 -42t101.5 42t41.5 102v204q0 60 -41.5 102t-101.5 42t-101.5 -42t-41.5 -102v-204z" />
<glyph unicode="r" d="M123 0v1024h287v-25q70 25 143 25q179 0 304.5 -126t125.5 -304v-72h-287v72q0 60 -41.5 101.5t-101.5 41.5t-101.5 -41.5t-41.5 -101.5v-594h-287zM455 784q45 25 98 25q89 0 152 -63t63 -152h143q0 150 -104 254q-86 86 -209 102q-95 -67 -143 -166z" />
<glyph unicode="s" horiz-adv-x="1013" d="M102 319h256q0 -26 19 -44.5t45 -18.5h129q26 0 44.5 18.5t18.5 44.5t-18.5 45t-44.5 21l-109 8q-149 11 -234 92.5t-85 219.5q0 133 95.5 226t223.5 93h47q135 0 227.5 -92t92.5 -227h-256q0 30 -13 46.5t-51 16.5h-47q-26 0 -44.5 -18.5t-18.5 -44.5t18 -44t45 -20 l109 -8q144 -11 231.5 -93t87.5 -221q0 -133 -95.5 -226t-223.5 -93h-129q-133 0 -226.5 95.5t-93.5 223.5zM174 256q24 -83 91 -138t157 -55q74 0 125.5 19.5t79 56t39.5 80.5t12 100q0 -52 -37 -89t-90 -37h-129q-74 0 -111 63h-137zM315 705q0 52 37 89t90 37h47 q74 0 111 -63h137q-24 83 -91 138t-157 55q-86 0 -130 -71.5t-44 -184.5z" />
<glyph unicode="t" horiz-adv-x="931" d="M123 430v1004h287v-410h399v-287h-399v-307q0 -60 41.5 -101.5t101.5 -41.5h256v-287h-256q-179 0 -304.5 126t-125.5 304zM410 809h327v143h-327v-143zM455 240q48 -99 143 -166l139 -2v143h-184q-53 0 -98 25z" />
<glyph unicode="u" d="M123 410v614h287v-614q0 -60 41.5 -102t101.5 -42t101.5 42t41.5 102v614h287v-614q0 -178 -125.5 -304t-304.5 -126t-304.5 126t-125.5 304zM455 219q48 -99 143 -166q122 16 209 103q104 104 104 254v542h-143v-542q0 -89 -63 -152t-152 -63q-55 0 -98 24z" />
<glyph unicode="v" horiz-adv-x="1269" d="M123 1024h256l256 -682l256 682h256l-383 -1024h-256zM670 250l59 -158l326 869h-119z" />
<glyph unicode="w" horiz-adv-x="1654" d="M123 1024h256l182 -582l137 519h256l140 -521l182 584h256l-322 -1024h-256l-127 481l-129 -481h-256zM596 328l68 -213l131 487l-64 234zM1124 326l56 -211l264 846h-123z" />
<glyph unicode="x" horiz-adv-x="1032" d="M61 0l289 512l-289 512h273l151 -270l152 270h272l-286 -512l286 -512h-272l-152 270l-151 -270h-273zM170 63h127l152 271l-64 112zM522 688l64 -110l215 383h-125z" />
<glyph unicode="y" d="M123 -223l430 -2q60 0 101.5 41.5t41.5 101.5v86q-68 -24 -143 -24q-179 0 -304.5 126t-125.5 304v614h287v-614q0 -60 41.5 -102t101.5 -42t101.5 42t41.5 102v614h287v-1106q0 -178 -125.5 -304t-304.5 -126h-430v289zM195 -295v-145l313 2q89 64 137 153q3 9 -6 6 q-41 -18 -86 -18zM195 410q0 -150 104 -254q81 -81 190 -99q4 -1 5 1t-2 5q-71 65 -112.5 153.5t-41.5 186.5v549h-143v-542z" />
<glyph unicode="z" horiz-adv-x="1095" d="M139 0l396 788h-396v236h817l-393 -788h393v-236h-817zM246 63h153l449 898h-154z" />
<glyph unicode="{" horiz-adv-x="946" d="M123 582v270q91 31 150 113.5t59 177.5v186q0 110 60 197t162.5 134.5t227.5 47.5v-287q-31 0 -57.5 -6.5t-52 -22.5t-40 -47.5t-14.5 -76.5v-125q0 -120 -48 -231t-134 -195q86 -84 134 -195t48 -231v-125q0 -84 46.5 -119t117.5 -35v-286q-190 0 -320 105.5t-130 272.5 v187q0 95 -59 177.5t-150 113.5zM246 594q70 -55 111.5 -135.5t41.5 -167.5v-187q0 -125 89 -207t227 -100v154q-79 20 -121.5 76t-42.5 139v125q0 106 -45 207.5t-121 175.5q-68 -55 -139 -80z" />
<glyph unicode="|" horiz-adv-x="614" d="M205 -512v2152h205v-2152h-205z" />
<glyph unicode="}" horiz-adv-x="946" d="M123 12q31 0 57.5 7t52 23t40 47.5t14.5 76.5v125q0 120 48 231t134 195q-86 84 -134 195t-48 231v125q0 153 -164 153v287q190 0 320 -106t130 -273v-186q0 -95 59 -177.5t150 -113.5v-270q-91 -31 -150 -113.5t-59 -177.5v-187q0 -166 -129 -272t-321 -106v286z M190 1483q79 -20 121.5 -76t42.5 -139v-125q0 -106 45 -207.5t121 -175.5q68 55 139 80q-70 55 -111.5 135.5t-41.5 167.5v186q0 125 -89 207t-227 100v-153z" />
<glyph unicode="~" horiz-adv-x="1228" />
<glyph unicode="&#xa1;" horiz-adv-x="768" d="M205 -20l71 1024h216l71 -1024h-358zM250 1165v269h268v-269h-268z" />
<glyph unicode="&#xa2;" d="M123 410v204q0 151 93 267.5t235 150.5v170h196v-168q146 -33 241 -150t95 -270h-287q0 60 -41.5 102t-101.5 42t-101.5 -42t-41.5 -102v-204q0 -60 41.5 -102t101.5 -42t101.5 42t41.5 102h287q0 -153 -95 -270t-241 -150v-166h-196v168q-142 34 -235 150.5t-93 267.5z M459 209q49 -93 139 -156q117 15 200 94t107 191h-149q-22 -64 -77.5 -103.5t-125.5 -39.5q-47 0 -88 18q-9 6 -6 -4zM461 817q-3 -9 6 -6q41 18 86 18q70 0 125.5 -39.5t77.5 -103.5h149q-25 114 -108.5 192t-198.5 93q-88 -63 -137 -154z" />
<glyph unicode="&#xa3;" horiz-adv-x="1228" />
<glyph unicode="&#xa4;" horiz-adv-x="1228" />
<glyph unicode="&#xa5;" horiz-adv-x="1146" d="M61 1434h287l215 -560l215 560h287l-287 -744h180v-166h-243l-8 -22v-60h251v-166h-251v-276h-287v276h-250v166h250v60l-8 22h-242v166h178zM166 1362l293 -760l65 172l-225 588h-133z" />
<glyph unicode="&#xa6;" horiz-adv-x="1228" />
<glyph unicode="&#xa7;" horiz-adv-x="1228" />
<glyph unicode="&#xa8;" horiz-adv-x="645" d="M0 1335v287h215v-287h-215zM51 1436l113 20v115h-113v-135zM430 1335v287h215v-287h-215zM481 1516l113 20v35h-113v-55z" />
<glyph unicode="&#xa9;" horiz-adv-x="1228" />
<glyph unicode="&#xac;" horiz-adv-x="1228" />
<glyph unicode="&#xad;" horiz-adv-x="1198" d="M205 465v287h788v-287h-788zM276 537h248l107 143h-355v-143z" />
<glyph unicode="&#xae;" horiz-adv-x="1228" />
<glyph unicode="&#xaf;" horiz-adv-x="645" d="M0 1325v215h645v-215h-645zM51 1487l2 -115l541 115h-543z" />
<glyph unicode="&#xb0;" horiz-adv-x="557" d="M0 1466q0 117 81.5 199t197.5 82t197 -82t81 -199q0 -116 -81.5 -197t-196.5 -81q-116 0 -197.5 81.5t-81.5 196.5zM139 1516q0 -5 2 -5q1 0 4 5q8 34 47 63t87 29q58 0 98.5 -41.5t40.5 -100.5v-2q0 -127 -99 -223q-5 -3 -1 -3l4 1q81 14 135.5 77.5t54.5 149.5 q0 98 -69 166t-164 68q-5 0 -16 -1t-15 -1q-45 -36 -74.5 -86t-34.5 -96zM186 1466q0 -38 27.5 -65t65.5 -27t65 27t27 65q0 40 -27 67.5t-65 27.5t-65.5 -27.5t-27.5 -67.5z" />
<glyph unicode="&#xb1;" horiz-adv-x="1228" />
<glyph unicode="&#xb4;" horiz-adv-x="671" d="M0 1475l631 133l45 -209l-631 -135zM61 1434h553l-22 112z" />
<glyph unicode="&#xb6;" horiz-adv-x="1228" />
<glyph unicode="&#xb7;" horiz-adv-x="677" d="M205 492v268h268v-268h-268z" />
<glyph unicode="&#xb8;" horiz-adv-x="1228" d="M225 -209h170v-35q0 -19 14 -32t33 -13t33 13t14 32q0 22 -8.5 35t-52.5 57q-72 69 -72 172h172q0 -22 9 -34.5t53 -55.5q69 -72 69 -174q0 -91 -63 -154t-154 -63t-154 63t-63 154v35z" />
<glyph unicode="&#xbf;" horiz-adv-x="1044" d="M102 389q0 79 40 156t97 136t113.5 113.5t96.5 108.5t40 101h230q0 -63 -34 -136.5t-82.5 -138.5t-97 -126.5t-82.5 -118t-34 -95.5q0 -60 41.5 -101.5t101.5 -41.5t102 41.5t42 101.5h287q0 -178 -126 -304t-305 -126q-178 0 -304 125.5t-126 304.5zM469 1165v269h270 v-269h-270z" />
<glyph unicode="&#xc0;" horiz-adv-x="1269" d="M61 0l431 1434h286l430 -1434h-286l-107 358h-358l-109 -358h-287zM297 1808l45 209l631 -133l-45 -211zM358 1843h553l-530 113zM543 645h186l-94 311zM672 1081l303 -1009h137l-371 1237z" />
<glyph unicode="&#xc1;" horiz-adv-x="1269" d="M61 0l431 1434h286l430 -1434h-286l-107 358h-358l-109 -358h-287zM299 1884l631 133l45 -209l-631 -135zM360 1843h553l-22 113zM543 645h186l-94 311zM672 1081l303 -1009h137l-371 1237z" />
<glyph unicode="&#xc2;" horiz-adv-x="1269" d="M61 0l431 1434h286l430 -1434h-286l-107 358h-358l-109 -358h-287zM268 1907l367 161l366 -161l-88 -197l-278 125l-279 -125zM543 645h186l-94 311zM672 1081l303 -1009h137l-371 1237zM698 1862l191 -84l45 102l-98 43z" />
<glyph unicode="&#xc3;" horiz-adv-x="1269" d="M61 0l431 1434h286l430 -1434h-286l-107 358h-358l-109 -358h-287zM195 1741q0 127 89.5 217t217.5 90q113 0 198 -72q21 -17 35.5 -23.5t38.5 -6.5q43 0 73 29.5t30 72.5h204q0 -128 -89.5 -217.5t-217.5 -89.5q-115 0 -199 71q-31 31 -73 31q-43 0 -73 -29.5t-30 -72.5 h-204zM250 1792h102q14 111 107 197q4 4 0 5q-1 0 -2 -1q-76 -14 -133 -69t-74 -132zM543 645h186l-94 311zM672 1081l303 -1009h137l-371 1237zM817 1796q1 -1 2 0q76 14 133 69t74 132h-102q-14 -111 -107 -197q-4 -4 0 -4z" />
<glyph unicode="&#xc4;" horiz-adv-x="1269" d="M61 0l431 1434h286l430 -1434h-286l-107 358h-358l-109 -358h-287zM311 1745v287h215v-287h-215zM362 1845l113 21v114h-113v-135zM543 645h186l-94 311zM672 1081l303 -1009h137l-371 1237zM741 1745v287h215v-287h-215zM793 1925l112 21v34h-112v-55z" />
<glyph unicode="&#xc5;" horiz-adv-x="1269" d="M61 0l431 1434h286l430 -1434h-286l-107 358h-358l-109 -358h-287zM356 1876q0 117 81.5 199t197.5 82t197 -82t81 -199q0 -116 -81.5 -197.5t-196.5 -81.5t-197 81.5t-82 197.5zM496 1925q0 -4 2 -4t4 4q8 35 46.5 63.5t86.5 28.5q58 0 98.5 -41t40.5 -100v-2 q0 -128 -98 -223l-3 -3q1 0 5 1q81 14 135.5 77.5t54.5 149.5q0 98 -69 165.5t-164 67.5q-5 0 -16 -1t-15 -1q-45 -36 -74 -86t-34 -96zM543 645h186l-94 311zM543 1876q0 -38 27 -65t65 -27t65 27t27 65q0 40 -27 67t-65 27t-65 -27t-27 -67zM672 1081l303 -1009h137 l-371 1237z" />
<glyph unicode="&#xc6;" horiz-adv-x="1894" d="M61 0l431 1434h286l123 -410v410h789v-287h-502v-287h502v-287h-502v-286h502v-287h-768l-107 358h-358l-109 -358h-287zM543 645h186l-94 311zM973 72h645v143h-502v430h502v143h-502v431h502v143h-645v-1290z" />
<glyph unicode="&#xc7;" horiz-adv-x="1208" d="M184 410v614q0 178 126 304t304 126t304 -126t126 -304h-286q0 60 -42 101.5t-102 41.5t-101.5 -41.5t-41.5 -101.5v-614q0 -60 41.5 -102t101.5 -42t102 42t42 102h286q0 -160 -103.5 -280.5t-258.5 -143.5q15 -22 51 -56q70 -73 70 -174q0 -91 -63 -154t-154 -63 t-154 63t-63 154v35h170v-35q0 -19 14 -32t33 -13t33 13t14 32q0 22 -9 35t-53 57q-63 60 -69 146q-139 39 -228.5 154t-89.5 262zM520 209q49 -93 139 -156q122 16 209 103q78 82 99 182h-150q-22 -64 -77.5 -103.5t-125.5 -39.5q-48 0 -88 18q-9 6 -6 -4zM522 1227 q-3 -9 6 -6q40 18 86 18q70 0 125.5 -39.5t77.5 -103.5h150q-21 100 -99 182q-86 86 -209 102q-89 -64 -137 -153z" />
<glyph unicode="&#xc8;" horiz-adv-x="1198" d="M205 0v1434h788v-287h-501v-287h501v-287h-501v-286h501v-287h-788zM262 1808l45 209l631 -133l-45 -211zM324 1843h553l-531 113zM492 645h430v143h-430v-143z" />
<glyph unicode="&#xc9;" horiz-adv-x="1198" d="M205 0v1434h788v-287h-501v-287h501v-287h-501v-286h501v-287h-788zM264 1884l631 133l45 -209l-631 -135zM326 1843h553l-23 113zM492 645h430v143h-430v-143z" />
<glyph unicode="&#xca;" horiz-adv-x="1198" d="M205 0v1434h788v-287h-501v-287h501v-287h-501v-286h501v-287h-788zM233 1907l367 161l367 -161l-88 -197l-279 125l-278 -125zM492 645h430v143h-430v-143zM664 1862l190 -84l45 102l-98 43z" />
<glyph unicode="&#xcb;" horiz-adv-x="1198" d="M205 0v1434h788v-287h-501v-287h501v-287h-501v-286h501v-287h-788zM276 1745v287h216v-287h-216zM328 1845l112 21v114h-112v-135zM492 645h430v143h-430v-143zM707 1745v287h215v-287h-215zM758 1925l112 21v34h-112v-55z" />
<glyph unicode="&#xcc;" horiz-adv-x="696" d="M10 1808l45 209l631 -133l-45 -211zM72 1843h553l-531 113zM205 0v1434h287v-1434h-287z" />
<glyph unicode="&#xcd;" horiz-adv-x="696" d="M12 1884l631 133l45 -209l-631 -135zM74 1843h553l-23 113zM205 0v1434h287v-1434h-287z" />
<glyph unicode="&#xce;" horiz-adv-x="696" d="M-18 1907l366 161l367 -161l-88 -197l-279 125l-278 -125zM205 0v1434h287v-1434h-287zM412 1862l190 -84l45 102l-98 43z" />
<glyph unicode="&#xcf;" horiz-adv-x="696" d="M25 1745v287h215v-287h-215zM76 1845l112 21v114h-112v-135zM205 0v1434h287v-1434h-287zM455 1745v287h215v-287h-215zM506 1925l112 21v34h-112v-55z" />
<glyph unicode="&#xd0;" horiz-adv-x="1228" d="M31 575v287h174v572h430q179 0 304.5 -126t125.5 -304v-574q0 -178 -125.5 -304t-304.5 -126h-430v575h-174zM106 653h500v133h-500v-133zM492 287h143q59 0 101 42.5t42 100.5v574q0 60 -42 101.5t-101 41.5h-143v-285h190v-287h-190v-288z" />
<glyph unicode="&#xd1;" horiz-adv-x="1413" d="M205 0v1434h287l430 -861v861h286v-1434h-286l-430 860v-860h-287zM266 1741q0 127 90 217t217 90q114 0 199 -72q21 -17 35.5 -23.5t38.5 -6.5q43 0 72.5 29.5t29.5 72.5h205q0 -128 -89.5 -217.5t-217.5 -89.5q-115 0 -199 71q-31 31 -74 31t-72.5 -29.5t-29.5 -72.5 h-205zM322 1792h102q14 112 106 197q4 4 0 5q-1 0 -2 -1q-75 -14 -132 -68.5t-74 -132.5zM492 1020l475 -948h125l-170 342l-430 860v-254zM889 1796q1 -1 2 0q76 14 133 69t74 132h-103q-14 -112 -106 -197q-4 -4 0 -4z" />
<glyph unicode="&#xd2;" horiz-adv-x="1228" d="M184 410v614q0 178 126 304t304 126t304 -126t126 -304v-614q0 -178 -126 -304t-304 -126t-304 126t-126 304zM276 1808l46 209l630 -133l-45 -211zM338 1843h553l-531 113zM399 1098q0 -6 2 -6t5 6q14 54 74 97.5t134 43.5q89 0 152 -63t63 -152v-621q0 -99 -41 -187 t-112 -153q-7 -7 -1 -7l3 1q125 22 210 121t85 232v614q0 150 -107 254t-252 104q-19 0 -51 -4q-67 -57 -111.5 -133t-52.5 -147zM471 410q0 -60 41.5 -102t101.5 -42t102 42t42 102v614q0 60 -42 101.5t-102 41.5t-101.5 -41.5t-41.5 -101.5v-614z" />
<glyph unicode="&#xd3;" horiz-adv-x="1228" d="M184 410v614q0 178 126 304t304 126t304 -126t126 -304v-614q0 -178 -126 -304t-304 -126t-304 126t-126 304zM279 1884l630 133l45 -209l-630 -135zM340 1843h553l-23 113zM399 1098q0 -6 2 -6t5 6q14 54 74 97.5t134 43.5q89 0 152 -63t63 -152v-621q0 -99 -41 -187 t-112 -153q-7 -7 -1 -7l3 1q125 22 210 121t85 232v614q0 150 -107 254t-252 104q-19 0 -51 -4q-67 -57 -111.5 -133t-52.5 -147zM471 410q0 -60 41.5 -102t101.5 -42t102 42t42 102v614q0 60 -42 101.5t-102 41.5t-101.5 -41.5t-41.5 -101.5v-614z" />
<glyph unicode="&#xd4;" horiz-adv-x="1228" d="M184 410v614q0 178 126 304t304 126t304 -126t126 -304v-614q0 -178 -126 -304t-304 -126t-304 126t-126 304zM248 1907l366 161l367 -161l-88 -197l-279 125l-278 -125zM399 1098q0 -6 2 -6t5 6q14 54 74 97.5t134 43.5q89 0 152 -63t63 -152v-621q0 -99 -41 -187 t-112 -153q-7 -7 -1 -7l3 1q125 22 210 121t85 232v614q0 150 -107 254t-252 104q-19 0 -51 -4q-67 -57 -111.5 -133t-52.5 -147zM471 410q0 -60 41.5 -102t101.5 -42t102 42t42 102v614q0 60 -42 101.5t-102 41.5t-101.5 -41.5t-41.5 -101.5v-614zM678 1862l190 -84l45 102 l-98 43z" />
<glyph unicode="&#xd5;" horiz-adv-x="1228" d="M174 1741q0 127 90 217t217 90q114 0 199 -72q21 -17 35.5 -23.5t38.5 -6.5q43 0 72.5 29.5t29.5 72.5h205q0 -128 -89.5 -217.5t-217.5 -89.5q-115 0 -199 71q-31 31 -74 31t-72.5 -29.5t-29.5 -72.5h-205zM184 410v614q0 178 126 304t304 126t304 -126t126 -304v-614 q0 -178 -126 -304t-304 -126t-304 126t-126 304zM229 1792h103q14 112 106 197q4 4 0 5q-1 0 -2 -1q-76 -14 -133 -69t-74 -132zM399 1098q0 -6 2 -6t5 6q14 54 74 97.5t134 43.5q89 0 152 -63t63 -152v-621q0 -99 -41 -187t-112 -153q-7 -7 -1 -7l3 1q125 22 210 121 t85 232v614q0 150 -107 254t-252 104q-19 0 -51 -4q-67 -57 -111.5 -133t-52.5 -147zM471 410q0 -60 41.5 -102t101.5 -42t102 42t42 102v614q0 60 -42 101.5t-102 41.5t-101.5 -41.5t-41.5 -101.5v-614zM797 1796q1 -1 2 0q76 14 133 69t74 132h-103q-14 -112 -106 -197 q-4 -4 0 -4z" />
<glyph unicode="&#xd6;" horiz-adv-x="1228" d="M184 410v614q0 178 126 304t304 126t304 -126t126 -304v-614q0 -178 -126 -304t-304 -126t-304 126t-126 304zM291 1745v287h215v-287h-215zM342 1845l113 21v114h-113v-135zM399 1098q0 -6 2 -6t5 6q14 54 74 97.5t134 43.5q89 0 152 -63t63 -152v-621q0 -99 -41 -187 t-112 -153q-7 -7 -1 -7l3 1q125 22 210 121t85 232v614q0 150 -107 254t-252 104q-19 0 -51 -4q-67 -57 -111.5 -133t-52.5 -147zM471 410q0 -60 41.5 -102t101.5 -42t102 42t42 102v614q0 60 -42 101.5t-102 41.5t-101.5 -41.5t-41.5 -101.5v-614zM721 1745v287h215v-287 h-215zM772 1925l113 21v34h-113v-55z" />
<glyph unicode="&#xd7;" horiz-adv-x="1083" d="M61 406l287 286l-287 287l203 203l289 -289l287 287l182 -183l-289 -286l285 -287l-203 -203l-287 287l-284 -285zM162 977l235 -236l105 103l-238 237zM580 559l235 -235l103 100l-236 235z" />
<glyph unicode="&#xd8;" horiz-adv-x="1269" d="M16 119l189 258v33v614q0 178 125.5 304t304.5 126q164 0 285 -108l102 139l231 -170l-190 -258q2 -10 2 -33v-614q0 -178 -125.5 -304t-304.5 -126q-164 0 -285 108l-102 -139zM420 1098q0 -6 2 -6q1 0 4 6q14 54 74 97.5t135 43.5q68 0 120.5 -38.5t78.5 -92.5l-56 -76 l-286 -389v-233v-9l286 390l72 98v-486q0 -98 -41.5 -186.5t-112.5 -153.5q-7 -7 -1 -7l3 1q125 22 210 121t85 232v614q0 17 -4 53l55 76l109 145l-117 86l-65 -92l-45 -59q-45 65 -120.5 107t-170.5 42q-19 0 -51 -4q-67 -57 -111.5 -133t-52.5 -147zM492 764l256 348 q-45 55 -113 55q-60 0 -101.5 -41.5t-41.5 -101.5v-260zM522 322q40 -56 113 -56q60 0 101.5 42t41.5 102v260z" />
<glyph unicode="&#xd9;" horiz-adv-x="1269" d="M205 430v1004h287v-1004q0 -60 41.5 -101.5t101.5 -41.5t101.5 41.5t41.5 101.5v1004h287v-1004q0 -178 -125.5 -304t-304.5 -126t-304.5 126t-125.5 304zM297 1808l45 209l631 -133l-45 -211zM358 1843h553l-530 113zM537 240q48 -99 143 -166q123 16 209 102 q104 104 104 254v932h-143v-932q0 -89 -63 -152t-152 -63q-53 0 -98 25z" />
<glyph unicode="&#xda;" horiz-adv-x="1269" d="M205 430v1004h287v-1004q0 -60 41.5 -101.5t101.5 -41.5t101.5 41.5t41.5 101.5v1004h287v-1004q0 -178 -125.5 -304t-304.5 -126t-304.5 126t-125.5 304zM299 1884l631 133l45 -209l-631 -135zM360 1843h553l-22 113zM537 240q48 -99 143 -166q123 16 209 102 q104 104 104 254v932h-143v-932q0 -89 -63 -152t-152 -63q-53 0 -98 25z" />
<glyph unicode="&#xdb;" horiz-adv-x="1269" d="M205 430v1004h287v-1004q0 -60 41.5 -101.5t101.5 -41.5t101.5 41.5t41.5 101.5v1004h287v-1004q0 -178 -125.5 -304t-304.5 -126t-304.5 126t-125.5 304zM268 1907l367 161l366 -161l-88 -197l-278 125l-279 -125zM537 240q48 -99 143 -166q123 16 209 102 q104 104 104 254v932h-143v-932q0 -89 -63 -152t-152 -63q-53 0 -98 25zM698 1862l191 -84l45 102l-98 43z" />
<glyph unicode="&#xdc;" horiz-adv-x="1269" d="M205 430v1004h287v-1004q0 -60 41.5 -101.5t101.5 -41.5t101.5 41.5t41.5 101.5v1004h287v-1004q0 -178 -125.5 -304t-304.5 -126t-304.5 126t-125.5 304zM311 1745v287h215v-287h-215zM362 1845l113 21v114h-113v-135zM537 240q48 -99 143 -166q123 16 209 102 q104 104 104 254v932h-143v-932q0 -89 -63 -152t-152 -63q-53 0 -98 25zM741 1745v287h215v-287h-215zM793 1925l112 21v34h-112v-55z" />
<glyph unicode="&#xdd;" horiz-adv-x="1146" d="M61 1434h287l215 -560l215 560h287l-358 -932v-502h-287v502zM166 1362l293 -760l65 172l-225 588h-133zM238 1884l630 133l45 -209l-630 -135zM299 1843h553l-23 113z" />
<glyph unicode="&#xde;" horiz-adv-x="1208" d="M205 0v1434h287v-250h108q125 0 232 -63t170 -170t63 -232q0 -126 -62.5 -233.5t-169.5 -170.5t-233 -63h-108v-252h-287zM492 324h108q163 0 278 115t115 278q0 164 -114.5 279.5t-278.5 115.5h-108v-143h108q103 0 176.5 -74t73.5 -178q0 -103 -73.5 -176.5 t-176.5 -73.5h-108v-143zM492 539h108q74 0 126 52.5t52 125.5q0 75 -52 127.5t-126 52.5h-108v-358z" />
<glyph unicode="&#xdf;" horiz-adv-x="1064" d="M123 0v1004q0 177 126.5 303.5t303.5 126.5t303.5 -126.5t126.5 -303.5q0 -76 -29 -153t-80 -134q51 -57 80 -134t29 -153q0 -177 -126.5 -303.5t-303.5 -126.5h-72v287h72q60 0 101.5 41.5t41.5 101.5t-41.5 101.5t-101.5 41.5h-72v287h72q60 0 101.5 42t41.5 102 t-41.5 101.5t-101.5 41.5t-101.5 -41.5t-41.5 -101.5v-1004h-287zM338 1004q0 89 63 152t152 63t152 -63t63 -152t-63 -152.5t-152 -63.5v-143q89 0 152 -63t63 -152t-63 -152t-152 -63v-143q150 0 254 104t104 254q0 84 -38 162t-105 125q67 47 105 124t38 163 q0 129 -80 227.5t-206 124.5q-105 -21 -183 -99q-104 -104 -104 -253z" />
<glyph unicode="&#xe0;" d="M123 410v204q0 178 125.5 304t304.5 126q75 0 143 -24v4h287v-1024h-287v4q-68 -24 -143 -24q-179 0 -304.5 126t-125.5 304zM256 1399l45 209l631 -133l-45 -211zM317 1434h553l-530 112zM338 688q0 -6 2 -6q1 0 4 6q14 54 74 97.5t135 43.5q89 0 152 -62t63 -153v-542 h143v880h-143v-51q-89 72 -215 72q-19 0 -51 -4q-67 -57 -111.5 -133.5t-52.5 -147.5zM410 410q0 -60 41.5 -102t101.5 -42t101.5 42t41.5 102v204q0 60 -41.5 102t-101.5 42t-101.5 -42t-41.5 -102v-204z" />
<glyph unicode="&#xe1;" d="M123 410v204q0 178 125.5 304t304.5 126q75 0 143 -24v4h287v-1024h-287v4q-68 -24 -143 -24q-179 0 -304.5 126t-125.5 304zM258 1475l631 133l45 -209l-631 -135zM319 1434h553l-22 112zM338 688q0 -6 2 -6q1 0 4 6q14 54 74 97.5t135 43.5q89 0 152 -62t63 -153v-542 h143v880h-143v-51q-89 72 -215 72q-19 0 -51 -4q-67 -57 -111.5 -133.5t-52.5 -147.5zM410 410q0 -60 41.5 -102t101.5 -42t101.5 42t41.5 102v204q0 60 -41.5 102t-101.5 42t-101.5 -42t-41.5 -102v-204z" />
<glyph unicode="&#xe2;" d="M123 410v204q0 178 125.5 304t304.5 126q75 0 143 -24v4h287v-1024h-287v4q-68 -24 -143 -24q-179 0 -304.5 126t-125.5 304zM227 1497l367 162l367 -162l-89 -197l-278 125l-279 -125zM338 688q0 -6 2 -6q1 0 4 6q14 54 74 97.5t135 43.5q89 0 152 -62t63 -153v-542h143 v880h-143v-51q-89 72 -215 72q-19 0 -51 -4q-67 -57 -111.5 -133.5t-52.5 -147.5zM410 410q0 -60 41.5 -102t101.5 -42t101.5 42t41.5 102v204q0 60 -41.5 102t-101.5 42t-101.5 -42t-41.5 -102v-204zM657 1452l191 -84l45 102l-98 43z" />
<glyph unicode="&#xe3;" d="M123 410v204q0 178 125.5 304t304.5 126q75 0 143 -24v4h287v-1024h-287v4q-68 -24 -143 -24q-179 0 -304.5 126t-125.5 304zM154 1331q0 127 90 217t217 90q114 0 198 -71q15 -12 23 -17.5t21 -9.5t30 -4q43 0 73 29.5t30 72.5h204q0 -128 -90 -217.5t-217 -89.5 q-113 0 -198 72q-31 31 -74 31t-73 -30t-30 -73h-204zM209 1382h102q14 111 107 197q4 4 0 5q-1 0 -2 -1q-76 -14 -133 -69t-74 -132zM338 688q0 -6 2 -6q1 0 4 6q14 54 74 97.5t135 43.5q89 0 152 -62t63 -153v-542h143v880h-143v-51q-89 72 -215 72q-19 0 -51 -4 q-67 -57 -111.5 -133.5t-52.5 -147.5zM410 410q0 -60 41.5 -102t101.5 -42t101.5 42t41.5 102v204q0 60 -41.5 102t-101.5 42t-101.5 -42t-41.5 -102v-204zM775 1386q1 -1 3 0q76 14 133 69t74 132h-102q-14 -110 -107 -196q-2 -2 -1 -5z" />
<glyph unicode="&#xe4;" d="M123 410v204q0 178 125.5 304t304.5 126q75 0 143 -24v4h287v-1024h-287v4q-68 -24 -143 -24q-179 0 -304.5 126t-125.5 304zM270 1335v287h215v-287h-215zM322 1436l112 20v115h-112v-135zM338 688q0 -6 2 -6q1 0 4 6q14 54 74 97.5t135 43.5q89 0 152 -62t63 -153v-542 h143v880h-143v-51q-89 72 -215 72q-19 0 -51 -4q-67 -57 -111.5 -133.5t-52.5 -147.5zM410 410q0 -60 41.5 -102t101.5 -42t101.5 42t41.5 102v204q0 60 -41.5 102t-101.5 42t-101.5 -42t-41.5 -102v-204zM700 1335v287h215v-287h-215zM752 1516l112 20v35h-112v-55z" />
<glyph unicode="&#xe5;" d="M123 410v204q0 178 125.5 304t304.5 126q75 0 143 -24v4h287v-1024h-287v4q-68 -24 -143 -24q-179 0 -304.5 126t-125.5 304zM315 1466q0 117 81.5 199t197.5 82t197 -82t81 -199q0 -116 -81 -197t-197 -81t-197.5 81.5t-81.5 196.5zM338 688q0 -6 2 -6q1 0 4 6 q14 54 74 97.5t135 43.5q89 0 152 -62t63 -153v-542h143v880h-143v-51q-89 72 -215 72q-19 0 -51 -4q-67 -57 -111.5 -133.5t-52.5 -147.5zM410 410q0 -60 41.5 -102t101.5 -42t101.5 42t41.5 102v204q0 60 -41.5 102t-101.5 42t-101.5 -42t-41.5 -102v-204zM455 1516 q0 -5 2 -5q1 0 4 5q8 35 46.5 63.5t86.5 28.5q58 0 98.5 -41.5t40.5 -100.5v-2q0 -128 -98 -223l-3 -3q1 0 5 1q81 14 135.5 77.5t54.5 149.5q0 98 -69 166t-164 68q-5 0 -16 -1t-15 -1q-45 -36 -74 -86t-34 -96zM502 1466q0 -38 27 -65t65 -27t65 27t27 65q0 40 -27 67.5 t-65 27.5t-65 -27.5t-27 -67.5z" />
<glyph unicode="&#xe6;" horiz-adv-x="1525" d="M123 385v256q0 158 112.5 270.5t272.5 112.5q60 0 127 -23v23h256v-2q64 22 129 22q158 0 270.5 -112t112.5 -270v-297h-512q0 -65 45.5 -98.5t116.5 -33.5q118 0 213 74l153 -207q-174 -120 -368 -120q-87 0 -160 24v-4h-256v23q-67 -23 -127 -23q-160 0 -272.5 112.5 t-112.5 272.5zM379 385q0 -54 37.5 -91.5t91.5 -37.5q53 0 90 37.5t37 91.5v256q0 53 -37.5 90t-89.5 37q-54 0 -91.5 -37t-37.5 -90v-256zM891 74q73 -33 168 -33q145 0 270 76l-78 104q-92 -53 -194 -53q-101 0 -166 53v-147zM891 428h448v234q0 131 -93 225t-226 94 q-63 0 -129 -27v-149q56 47 129 47q88 0 139 -59.5t51 -130.5v-130h-319v-104zM891 596h256v66q0 52 -37 89t-90 37q-54 0 -91.5 -36.5t-37.5 -89.5v-66z" />
<glyph unicode="&#xe7;" d="M123 410v204q0 178 125.5 304t304.5 126t304.5 -126t125.5 -304h-287q0 60 -41.5 102t-101.5 42t-101.5 -42t-41.5 -102v-204q0 -60 41.5 -102t101.5 -42t101.5 42t41.5 102h287q0 -160 -103.5 -280.5t-258.5 -143.5q15 -22 51 -56q69 -72 69 -174q0 -91 -63 -154 t-154 -63t-154 63t-63 154v35h170v-35q0 -19 14 -32t33 -13t33 13t14 32q0 22 -8.5 35t-52.5 57q-64 61 -70 146q-138 39 -227.5 154t-89.5 262zM459 209q49 -93 139 -156q122 16 209 103q77 80 98 182h-149q-22 -64 -77.5 -103.5t-125.5 -39.5q-47 0 -88 18q-9 6 -6 -4z M461 817q-3 -9 6 -6q41 18 86 18q70 0 125.5 -39.5t77.5 -103.5h149q-21 102 -98 182q-87 87 -209 103q-88 -63 -137 -154z" />
<glyph unicode="&#xe8;" horiz-adv-x="1013" d="M123 365v297q0 158 112.5 270t272.5 112q158 0 270.5 -112t112.5 -270v-297h-512q0 -54 37.5 -91.5t91.5 -37.5q91 0 140 14t106 57l153 -207q-104 -72 -184 -96t-215 -24q-160 0 -272.5 112.5t-112.5 272.5zM170 1399l45 209l631 -133l-45 -211zM231 1434h553l-530 112z M315 662q0 72 51 131t142 59q71 0 130.5 -51t59.5 -139v-130h-319v-104h448v234q0 55 -21.5 110.5t-60.5 102.5t-101 76.5t-136 29.5q-15 0 -47 -4q-68 -58 -107 -140t-39 -175zM379 596h256v66q0 52 -37 89t-90 37q-54 0 -91.5 -36.5t-37.5 -89.5v-66z" />
<glyph unicode="&#xe9;" horiz-adv-x="1013" d="M123 365v297q0 158 112.5 270t272.5 112q158 0 270.5 -112t112.5 -270v-297h-512q0 -54 37.5 -91.5t91.5 -37.5q91 0 140 14t106 57l153 -207q-104 -72 -184 -96t-215 -24q-160 0 -272.5 112.5t-112.5 272.5zM172 1475l631 133l45 -209l-631 -135zM233 1434h553l-22 112z M315 662q0 72 51 131t142 59q71 0 130.5 -51t59.5 -139v-130h-319v-104h448v234q0 55 -21.5 110.5t-60.5 102.5t-101 76.5t-136 29.5q-15 0 -47 -4q-68 -58 -107 -140t-39 -175zM379 596h256v66q0 52 -37 89t-90 37q-54 0 -91.5 -36.5t-37.5 -89.5v-66z" />
<glyph unicode="&#xea;" horiz-adv-x="1013" d="M123 365v297q0 158 112.5 270t272.5 112q158 0 270.5 -112t112.5 -270v-297h-512q0 -54 37.5 -91.5t91.5 -37.5q91 0 140 14t106 57l153 -207q-104 -72 -184 -96t-215 -24q-160 0 -272.5 112.5t-112.5 272.5zM141 1497l367 162l366 -162l-88 -197l-278 125l-279 -125z M315 662q0 72 51 131t142 59q71 0 130.5 -51t59.5 -139v-130h-319v-104h448v234q0 55 -21.5 110.5t-60.5 102.5t-101 76.5t-136 29.5q-15 0 -47 -4q-68 -58 -107 -140t-39 -175zM379 596h256v66q0 52 -37 89t-90 37q-54 0 -91.5 -36.5t-37.5 -89.5v-66zM571 1452l191 -84 l45 102l-98 43z" />
<glyph unicode="&#xeb;" horiz-adv-x="1013" d="M123 365v297q0 158 112.5 270t272.5 112q158 0 270.5 -112t112.5 -270v-297h-512q0 -54 37.5 -91.5t91.5 -37.5q91 0 140 14t106 57l153 -207q-104 -72 -184 -96t-215 -24q-160 0 -272.5 112.5t-112.5 272.5zM184 1335v287h215v-287h-215zM236 1436l112 20v115h-112v-135 zM315 662q0 72 51 131t142 59q71 0 130.5 -51t59.5 -139v-130h-319v-104h448v234q0 55 -21.5 110.5t-60.5 102.5t-101 76.5t-136 29.5q-15 0 -47 -4q-68 -58 -107 -140t-39 -175zM379 596h256v66q0 52 -37 89t-90 37q-54 0 -91.5 -36.5t-37.5 -89.5v-66zM614 1335v287h215 v-287h-215zM666 1516l112 20v35h-112v-55z" />
<glyph unicode="&#xec;" horiz-adv-x="532" d="M-72 1399l45 209l631 -133l-45 -211zM-10 1434h553l-531 112zM123 0v1024h287v-1024h-287z" />
<glyph unicode="&#xed;" horiz-adv-x="532" d="M-70 1475l631 133l45 -209l-631 -135zM-8 1434h553l-23 112zM123 0v1024h287v-1024h-287z" />
<glyph unicode="&#xee;" horiz-adv-x="532" d="M-100 1497l366 162l367 -162l-88 -197l-279 125l-278 -125zM123 0v1024h287v-1024h-287zM330 1452l190 -84l45 102l-98 43z" />
<glyph unicode="&#xef;" horiz-adv-x="532" d="M-57 1335v287h215v-287h-215zM-6 1436l112 20v115h-112v-135zM123 0v1024h287v-1024h-287zM373 1335v287h215v-287h-215zM424 1516l113 20v35h-113v-55z" />
<glyph unicode="&#xf0;" horiz-adv-x="1228" />
<glyph unicode="&#xf1;" d="M92 1331q0 127 90 217t217 90q115 0 199 -71q15 -12 23 -17.5t21 -9.5t30 -4q43 0 72.5 29.5t29.5 72.5h205q0 -128 -89.5 -217.5t-217.5 -89.5q-114 0 -199 72q-31 31 -74 31t-72.5 -30t-29.5 -73h-205zM123 0v1024h287v-25q70 25 143 25q179 0 304.5 -126t125.5 -304 v-594h-287v594q0 60 -41.5 101.5t-101.5 41.5t-101.5 -41.5t-41.5 -101.5v-594h-287zM147 1382h103q14 112 106 197q4 4 0 5q-1 0 -2 -1q-76 -14 -133 -69t-74 -132zM455 784q45 25 98 25q89 0 152 -63t63 -152v-522h143v522q0 150 -104 254q-86 86 -209 102 q-95 -67 -143 -166zM714 1386q1 -1 3 0q76 14 133 69t74 132h-103q-14 -111 -106 -196q-2 -2 -1 -5z" />
<glyph unicode="&#xf2;" d="M123 410v204q0 178 125.5 304t304.5 126t304.5 -126t125.5 -304v-204q0 -178 -125.5 -304t-304.5 -126t-304.5 126t-125.5 304zM215 1399l45 209l631 -133l-45 -211zM276 1434h553l-530 112zM338 688q0 -6 2 -6q1 0 4 6q14 54 74 97.5t135 43.5q89 0 152 -63t63 -152 v-211q0 -98 -41.5 -186.5t-112.5 -153.5q-7 -7 -1 -7l3 1q125 22 210 121t85 232v204q0 150 -106.5 254.5t-251.5 104.5q-19 0 -51 -4q-67 -57 -111.5 -133.5t-52.5 -147.5zM410 410q0 -60 41.5 -102t101.5 -42t101.5 42t41.5 102v204q0 60 -41.5 102t-101.5 42t-101.5 -42 t-41.5 -102v-204z" />
<glyph unicode="&#xf3;" d="M123 410v204q0 178 125.5 304t304.5 126t304.5 -126t125.5 -304v-204q0 -178 -125.5 -304t-304.5 -126t-304.5 126t-125.5 304zM217 1475l631 133l45 -209l-631 -135zM279 1434h552l-22 112zM338 688q0 -6 2 -6q1 0 4 6q14 54 74 97.5t135 43.5q89 0 152 -63t63 -152 v-211q0 -98 -41.5 -186.5t-112.5 -153.5q-7 -7 -1 -7l3 1q125 22 210 121t85 232v204q0 150 -106.5 254.5t-251.5 104.5q-19 0 -51 -4q-67 -57 -111.5 -133.5t-52.5 -147.5zM410 410q0 -60 41.5 -102t101.5 -42t101.5 42t41.5 102v204q0 60 -41.5 102t-101.5 42t-101.5 -42 t-41.5 -102v-204z" />
<glyph unicode="&#xf4;" d="M123 410v204q0 178 125.5 304t304.5 126t304.5 -126t125.5 -304v-204q0 -178 -125.5 -304t-304.5 -126t-304.5 126t-125.5 304zM186 1497l367 162l367 -162l-89 -197l-278 125l-279 -125zM338 688q0 -6 2 -6q1 0 4 6q14 54 74 97.5t135 43.5q89 0 152 -63t63 -152v-211 q0 -98 -41.5 -186.5t-112.5 -153.5q-7 -7 -1 -7l3 1q125 22 210 121t85 232v204q0 150 -106.5 254.5t-251.5 104.5q-19 0 -51 -4q-67 -57 -111.5 -133.5t-52.5 -147.5zM410 410q0 -60 41.5 -102t101.5 -42t101.5 42t41.5 102v204q0 60 -41.5 102t-101.5 42t-101.5 -42 t-41.5 -102v-204zM616 1452l191 -84l45 102l-98 43z" />
<glyph unicode="&#xf5;" d="M113 1331q0 127 89.5 217t217.5 90q114 0 198 -71q15 -12 23 -17.5t21 -9.5t30 -4q43 0 73 29.5t30 72.5h204q0 -128 -89.5 -217.5t-217.5 -89.5q-113 0 -198 72q-31 31 -74 31t-73 -30t-30 -73h-204zM123 410v204q0 178 125.5 304t304.5 126t304.5 -126t125.5 -304v-204 q0 -178 -125.5 -304t-304.5 -126t-304.5 126t-125.5 304zM168 1382h102q14 111 107 197q4 4 0 5q-1 0 -2 -1q-76 -14 -133 -69t-74 -132zM338 688q0 -6 2 -6q1 0 4 6q14 54 74 97.5t135 43.5q89 0 152 -63t63 -152v-211q0 -98 -41.5 -186.5t-112.5 -153.5q-7 -7 -1 -7l3 1 q125 22 210 121t85 232v204q0 150 -106.5 254.5t-251.5 104.5q-19 0 -51 -4q-67 -57 -111.5 -133.5t-52.5 -147.5zM410 410q0 -60 41.5 -102t101.5 -42t101.5 42t41.5 102v204q0 60 -41.5 102t-101.5 42t-101.5 -42t-41.5 -102v-204zM734 1386q1 -1 3 0q76 14 133 69t74 132 h-102q-14 -110 -107 -196q-2 -2 -1 -5z" />
<glyph unicode="&#xf6;" d="M123 410v204q0 178 125.5 304t304.5 126t304.5 -126t125.5 -304v-204q0 -178 -125.5 -304t-304.5 -126t-304.5 126t-125.5 304zM229 1335v287h215v-287h-215zM281 1436l112 20v115h-112v-135zM338 688q0 -6 2 -6q1 0 4 6q14 54 74 97.5t135 43.5q89 0 152 -63t63 -152 v-211q0 -98 -41.5 -186.5t-112.5 -153.5q-7 -7 -1 -7l3 1q125 22 210 121t85 232v204q0 150 -106.5 254.5t-251.5 104.5q-19 0 -51 -4q-67 -57 -111.5 -133.5t-52.5 -147.5zM410 410q0 -60 41.5 -102t101.5 -42t101.5 42t41.5 102v204q0 60 -41.5 102t-101.5 42t-101.5 -42 t-41.5 -102v-204zM659 1335v287h215v-287h-215zM711 1516l112 20v35h-112v-55z" />
<glyph unicode="&#xf7;" horiz-adv-x="1228" />
<glyph unicode="&#xf8;" horiz-adv-x="1103" d="M0 104l147 160q-24 68 -24 146v204q0 178 125.5 304t304.5 126q136 0 246 -77l119 125l186 -174l-148 -158q27 -76 27 -146v-204q0 -178 -125.5 -304t-304.5 -126q-138 0 -248 77l-117 -127zM338 688q0 -6 2 -6q1 0 4 6q14 54 74 97.5t135 43.5q45 0 87 -18.5t69 -48.5 l-299 -322v-30q0 -60 34 -97l252 271l68 71q4 -24 4 -41v-211q0 -98 -41.5 -186.5t-112.5 -153.5q-7 -7 -1 -7l3 1q125 22 210 121t85 232v204q0 84 -39 160l132 141l-82 76l-68 -71l-49 -54q-107 107 -252 107q-19 0 -51 -4q-67 -57 -111.5 -133.5t-52.5 -147.5zM410 545 l188 205q-28 8 -45 8q-60 0 -101.5 -42t-41.5 -102v-69zM506 272q21 -6 47 -6q60 0 101.5 42t41.5 102v67z" />
<glyph unicode="&#xf9;" d="M123 410v614h287v-614q0 -60 41.5 -102t101.5 -42t101.5 42t41.5 102v614h287v-614q0 -178 -125.5 -304t-304.5 -126t-304.5 126t-125.5 304zM215 1399l45 209l631 -133l-45 -211zM276 1434h553l-530 112zM455 219q48 -99 143 -166q122 16 209 103q104 104 104 254v542 h-143v-542q0 -89 -63 -152t-152 -63q-55 0 -98 24z" />
<glyph unicode="&#xfa;" d="M123 410v614h287v-614q0 -60 41.5 -102t101.5 -42t101.5 42t41.5 102v614h287v-614q0 -178 -125.5 -304t-304.5 -126t-304.5 126t-125.5 304zM217 1475l631 133l45 -209l-631 -135zM279 1434h552l-22 112zM455 219q48 -99 143 -166q122 16 209 103q104 104 104 254v542 h-143v-542q0 -89 -63 -152t-152 -63q-55 0 -98 24z" />
<glyph unicode="&#xfb;" d="M123 410v614h287v-614q0 -60 41.5 -102t101.5 -42t101.5 42t41.5 102v614h287v-614q0 -178 -125.5 -304t-304.5 -126t-304.5 126t-125.5 304zM186 1497l367 162l367 -162l-89 -197l-278 125l-279 -125zM455 219q48 -99 143 -166q122 16 209 103q104 104 104 254v542h-143 v-542q0 -89 -63 -152t-152 -63q-55 0 -98 24zM616 1452l191 -84l45 102l-98 43z" />
<glyph unicode="&#xfc;" d="M123 410v614h287v-614q0 -60 41.5 -102t101.5 -42t101.5 42t41.5 102v614h287v-614q0 -178 -125.5 -304t-304.5 -126t-304.5 126t-125.5 304zM229 1335v287h215v-287h-215zM281 1436l112 20v115h-112v-135zM455 219q48 -99 143 -166q122 16 209 103q104 104 104 254v542 h-143v-542q0 -89 -63 -152t-152 -63q-55 0 -98 24zM659 1335v287h215v-287h-215zM711 1516l112 20v35h-112v-55z" />
<glyph unicode="&#xfd;" d="M123 -223l430 -2q60 0 101.5 41.5t41.5 101.5v86q-68 -24 -143 -24q-179 0 -304.5 126t-125.5 304v614h287v-614q0 -60 41.5 -102t101.5 -42t101.5 42t41.5 102v614h287v-1106q0 -178 -125.5 -304t-304.5 -126h-430v289zM195 -295v-145l313 2q89 64 137 153q3 9 -6 6 q-41 -18 -86 -18zM195 410q0 -150 104 -254q81 -81 190 -99q4 -1 5 1t-2 5q-71 65 -112.5 153.5t-41.5 186.5v549h-143v-542zM217 1475l631 133l45 -209l-631 -135zM279 1434h552l-22 112z" />
<glyph unicode="&#xfe;" d="M123 -512v1946h287v-414q68 24 143 24q179 0 304.5 -126t125.5 -304v-204q0 -178 -125.5 -304t-304.5 -126q-76 0 -143 24v-516h-287zM338 688q0 -6 2 -6q1 0 4 6q14 54 74 97.5t135 43.5q89 0 152 -63t63 -152v-211q0 -98 -41.5 -186.5t-112.5 -153.5q-7 -7 -1 -7l3 1 q110 18 191 99q104 104 104 254v204q0 150 -104 254q-105 105 -254 105q-19 0 -51 -4q-67 -57 -111.5 -133.5t-52.5 -147.5zM410 410q0 -60 41.5 -102t101.5 -42t101.5 42t41.5 102v204q0 60 -41.5 102t-101.5 42t-101.5 -42t-41.5 -102v-204z" />
<glyph unicode="&#xff;" d="M123 -223l430 -2q60 0 101.5 41.5t41.5 101.5v86q-68 -24 -143 -24q-179 0 -304.5 126t-125.5 304v614h287v-614q0 -60 41.5 -102t101.5 -42t101.5 42t41.5 102v614h287v-1106q0 -178 -125.5 -304t-304.5 -126h-430v289zM195 -295v-145l313 2q89 64 137 153q3 9 -6 6 q-41 -18 -86 -18zM195 410q0 -150 104 -254q81 -81 190 -99q4 -1 5 1t-2 5q-71 65 -112.5 153.5t-41.5 186.5v549h-143v-542zM229 1335v287h215v-287h-215zM281 1436l112 20v115h-112v-135zM659 1335v287h215v-287h-215zM711 1516l112 20v35h-112v-55z" />
<glyph unicode="&#x152;" horiz-adv-x="1751" d="M184 410v614q0 178 126 304t304 126q76 0 144 -24v4h788v-287h-502v-287h502v-287h-502v-286h502v-287h-788v4q-68 -24 -144 -24q-178 0 -304 126t-126 304zM471 410q0 -60 41.5 -102t101.5 -42t102 42t42 102v614q0 60 -42 101.5t-102 41.5t-101.5 -41.5t-41.5 -101.5 v-614zM881 72h594v143h-478q-46 -87 -116 -143zM881 1362q70 -56 116 -143h478v143h-594zM1044 645h431v143h-431v-143z" />
<glyph unicode="&#x153;" horiz-adv-x="1525" d="M123 365v297q0 158 112.5 270t272.5 112q144 0 256 -98q109 98 256 98q158 0 270.5 -112t112.5 -270v-297h-512q0 -65 45.5 -98.5t116.5 -33.5q118 0 213 74l153 -207q-174 -120 -368 -120q-176 0 -289 96q-111 -96 -254 -96q-160 0 -272.5 112.5t-112.5 272.5zM379 365 q0 -54 37.5 -91.5t91.5 -37.5q53 0 90 37.5t37 91.5v297q0 52 -37 89t-90 37q-54 0 -91.5 -36.5t-37.5 -89.5v-297zM807 125q101 -84 252 -84q145 0 270 76l-78 104q-92 -53 -194 -53q-122 0 -187 74q-22 -66 -63 -117zM807 901q43 -56 63 -117q29 33 70 50.5t80 17.5 q88 0 139 -59.5t51 -130.5v-130h-319v-104h448v234q0 131 -93 225t-226 94q-120 0 -213 -80zM891 596h256v66q0 52 -37 89t-90 37q-54 0 -91.5 -36.5t-37.5 -89.5v-66z" />
<glyph unicode="&#x178;" horiz-adv-x="1146" d="M61 1434h287l215 -560l215 560h287l-358 -932v-502h-287v502zM166 1362l293 -760l65 172l-225 588h-133zM250 1745v287h215v-287h-215zM301 1845l113 21v114h-113v-135zM680 1745v287h215v-287h-215zM731 1925l113 21v34h-113v-55z" />
<glyph unicode="&#x2c6;" horiz-adv-x="733" d="M0 1497l367 162l366 -162l-88 -197l-278 125l-279 -125zM430 1452l191 -84l45 102l-99 43z" />
<glyph unicode="&#x2dc;" horiz-adv-x="886" d="M0 1331q0 127 90 217t217 90q115 0 199 -71q15 -12 23 -17.5t21 -9.5t30 -4q43 0 72.5 29.5t29.5 72.5h205q0 -128 -89.5 -217.5t-217.5 -89.5q-114 0 -199 72q-31 31 -74 31t-72.5 -30t-29.5 -73h-205zM55 1382h103q14 112 106 197q4 4 0 5q-1 0 -2 -1q-76 -14 -133 -69 t-74 -132zM622 1386q1 -1 3 0q75 14 132 68.5t74 132.5h-102q-14 -111 -106 -196q-2 -2 -1 -5z" />
<glyph unicode="&#x2000;" horiz-adv-x="1078" />
<glyph unicode="&#x2001;" horiz-adv-x="2157" />
<glyph unicode="&#x2002;" horiz-adv-x="1078" />
<glyph unicode="&#x2003;" horiz-adv-x="2157" />
<glyph unicode="&#x2004;" horiz-adv-x="719" />
<glyph unicode="&#x2005;" horiz-adv-x="539" />
<glyph unicode="&#x2006;" horiz-adv-x="359" />
<glyph unicode="&#x2007;" horiz-adv-x="359" />
<glyph unicode="&#x2008;" horiz-adv-x="269" />
<glyph unicode="&#x2009;" horiz-adv-x="431" />
<glyph unicode="&#x200a;" horiz-adv-x="119" />
<glyph unicode="&#x2010;" horiz-adv-x="1198" d="M205 465v287h788v-287h-788zM276 537h248l107 143h-355v-143z" />
<glyph unicode="&#x2011;" horiz-adv-x="1198" d="M205 465v287h788v-287h-788zM276 537h248l107 143h-355v-143z" />
<glyph unicode="&#x2012;" horiz-adv-x="1198" d="M205 465v287h788v-287h-788zM276 537h248l107 143h-355v-143z" />
<glyph unicode="&#x2013;" horiz-adv-x="1434" d="M205 465v287h1024v-287h-1024zM297 537h323l139 143h-462v-143z" />
<glyph unicode="&#x2014;" horiz-adv-x="2458" d="M205 465v287h2048v-287h-2048zM390 537h644l278 143h-922v-143z" />
<glyph unicode="&#x2018;" horiz-adv-x="618" d="M123 1247l186 373h187l-93 -373h-280z" />
<glyph unicode="&#x2019;" horiz-adv-x="618" d="M123 1247l92 373h281l-187 -373h-186z" />
<glyph unicode="&#x201a;" horiz-adv-x="618" d="M123 -207l92 373h281l-187 -373h-186z" />
<glyph unicode="&#x201c;" horiz-adv-x="987" d="M123 1247l186 373h187l-93 -373h-280zM512 1247l186 373h187l-92 -373h-281z" />
<glyph unicode="&#x201d;" horiz-adv-x="987" d="M123 1247l92 373h281l-187 -373h-186zM512 1247l92 373h281l-187 -373h-186z" />
<glyph unicode="&#x2022;" horiz-adv-x="1126" d="M205 625q0 148 104 254q104 104 254 104t254 -104q104 -106 104 -254t-104 -254q-105 -105 -254 -105t-254 105q-104 106 -104 254zM276 625q0 -107 70 -189l406 406q-81 69 -189 69q-119 0 -203 -84t-84 -202z" />
<glyph unicode="&#x2026;" horiz-adv-x="1640" d="M205 0v268h268v-268h-268zM686 0v268h268v-268h-268zM1167 0v268h269v-268h-269z" />
<glyph unicode="&#x202f;" horiz-adv-x="431" />
<glyph unicode="&#x205f;" horiz-adv-x="539" />
<glyph unicode="&#x20ac;" horiz-adv-x="1208" d="M57 500v166h127v82h-127v165h127v111q0 178 126 304t304 126t304 -126t126 -304h-286q0 60 -42 101.5t-102 41.5t-101.5 -41.5t-41.5 -101.5v-111h375v-165h-375v-82h375v-166h-375v-90q0 -60 41.5 -102t101.5 -42t102 42t42 102h286q0 -178 -126 -304t-304 -126 t-304 126t-126 304v90h-127zM520 209q49 -93 139 -156q117 15 200.5 94.5t107.5 190.5h-150q-22 -64 -77.5 -103.5t-125.5 -39.5q-48 0 -88 18q-9 6 -6 -4zM522 1227q-3 -9 6 -6q40 18 86 18q70 0 125.5 -39.5t77.5 -103.5h150q-25 114 -109 191.5t-199 92.5 q-89 -64 -137 -153z" />
<glyph unicode="&#x2122;" horiz-adv-x="2723" d="M82 1147v287h1003v-287h-358v-1147h-287v1147h-358zM512 72h143v1075h-143v-1075zM1372 0v1434h287l287 -621l286 621h287v-1434h-287v813l-143 -311h-287l-143 311v-813h-287zM1485 1362l356 -774l66 139l-248 535l-45 100h-129zM2304 72h143v1206l-143 -309v-897z" />
<glyph unicode="&#x25fc;" horiz-adv-x="1024" d="M0 0v1024h1024v-1024h-1024z" />
</font>
</defs>
</svg>
